# xmcd
#
# Track frame offsets: 
#        150
#        23920
#        70006
#        108830
#        136640
#        170859
#        189468
#        222548
#        261437
#        290551
#        316064
#
# Disc length: 4537 seconds
#
# Revision: 2
# Processed by: cddbd v1.5.1PL0 Copyright (c) Steve Scherf et al.
# Submitted via: ExactAudioCopy v0.95b2
#
DISCID=a311b70b
DTITLE=Charles Mingus - 80th Birthday Celebration [CD2]
DYEAR=2002
DGENRE=Jazz
TTITLE0=Elusive
TTITLE1=Minor Intrusion
TTITLE2=The Spur Of The Moment-Echonitus
TTITLE3=A Foggy Day
TTITLE4=Get Out Of Town (Alternate Take)
TTITLE5=Machajo
TTITLE6=Alone Toghether
TTITLE7=Percussion Discussion
TTITLE8=Work Song
TTITLE9=Drums
TTITLE10=Haitian Fight Song
EXTD=YEAR: 1954
EXTT0=
EXTT1=
EXTT2=
EXTT3=
EXTT4=
EXTT5=
EXTT6=
EXTT7=
EXTT8=
EXTT9=
EXTT10=
PLAYORDER=
